# xmcd
# 
# Track frame offsets:
#     150
#     9879
#     22578
#     40277
#     53636
#     69967
#     87915
#     101629
#     113918
#     124682
#     133637
#     148843
#     160377
# 
# Disc length: 2354
# 
# Revision: 0
# Processed by: cddbd v1.5.2PL0 Copyright (c) Steve Scherf et al.
# Submitted via: BonkEnc v1.0.6
# 
DISCID=a109300d
DTITLE=Bishop Allen - Charm School
DYEAR=2002
DGENRE=Blues
TTITLE0=Charm School
TTITLE1=Little Black Ache
TTITLE2=Busted Heart
TTITLE3=Bishop Allen Drive
TTITLE4=Eve of Destruction
TTITLE5=Things Are What You Make of Them
TTITLE6=Ghosts Are Good Company
TTITLE7=Empire City
TTITLE8=Coupla Easy Things
TTITLE9=Penitentiary Bound
TTITLE10=Quarter to Three
TTITLE11=Another Wasted Night
TTITLE12=Things Are What You Make of Them (reprise)
EXTD=YEAR: 2002 ID3G: 0
EXTT0=
EXTT1=
EXTT2=
EXTT3=
EXTT4=
EXTT5=
EXTT6=
EXTT7=
EXTT8=
EXTT9=
EXTT10=
EXTT11=
EXTT12=
PLAYORDER=
